<svg id="Glyph" height="512" viewBox="0 0 16 16" width="512" xmlns="http://www.w3.org/2000/svg" fill="currentColor">
  <path d="m15 7.5h-9a.5.5 0 0 0 0 1h9a.5.5 0 0 0 0-1z"/>
  <path d="m2 3.5h4a.5.5 0 0 0 0-1h-4a1.5017 1.5017 0 0 0 -1.5 1.5v8a1.5017 1.5017 0 0 0 1.5 1.5h2.793l-1.1465 1.1465a.5.5 0 1 0 .707.707l1.9994-1.9994a.5016.5016 0 0 0 0-.7082l-1.9994-1.9994a.5.5 0 1 0 -.707.707l1.1465 1.1465h-2.793a.5006.5006 0 0 1 -.5-.5v-8a.5006.5006 0 0 1 .5-.5z"/>
  <rect height="5" rx="1.5" width="8" x="7.5" y=".5"/>
  <rect height="5" rx="1.5" width="8" x="7.5" y="10.5"/>
</svg>
