<?xml version="1.0" encoding="UTF-8"?>
<svg xmlns="http://www.w3.org/2000/svg" id="Layer_2" data-name="Layer 2" viewBox="0 0 16 16" width="512" height="512" fill="currentColor"><path d="M14,10.5H9A1.5017,1.5017,0,0,0,7.5,12v2A1.5017,1.5017,0,0,0,9,15.5h5A1.5017,1.5017,0,0,0,15.5,14V12A1.5017,1.5017,0,0,0,14,10.5Zm.5,3.5a.5006.5006,0,0,1-.5.5H9a.5006.5006,0,0,1-.5-.5V12a.5006.5006,0,0,1,.5-.5h5a.5006.5006,0,0,1,.5.5Z"/><path d="M14,.5H9A1.5017,1.5017,0,0,0,7.5,2V4A1.5017,1.5017,0,0,0,9,5.5h5A1.5017,1.5017,0,0,0,15.5,4V2A1.5017,1.5017,0,0,0,14,.5ZM14.5,4a.5006.5006,0,0,1-.5.5H9A.5006.5006,0,0,1,8.5,4V2A.5006.5006,0,0,1,9,1.5h5a.5006.5006,0,0,1,.5.5Z"/><path d="M2,13.5H4.793L3.6465,14.6465a.5.5,0,1,0,.707.707l1.9994-1.9994a.5016.5016,0,0,0,0-.7082L4.3535,10.6465a.5.5,0,1,0-.707.707L4.793,12.5H2a.5006.5006,0,0,1-.5-.5V4A.5006.5006,0,0,1,2,3.5H6a.5.5,0,0,0,0-1H2A1.5017,1.5017,0,0,0,.5,4v8A1.5017,1.5017,0,0,0,2,13.5Z"/><path d="M15,7.5H6a.5.5,0,0,0,0,1h9a.5.5,0,0,0,0-1Z"/></svg>
